ModelForces
version=1
nRows=4
nColumns=155
inDegrees=no

This file contains the forces exerted on a model during a simulation.

A force is a generalized force, meaning that it can be either a force (N) or a torque (Nm).

Units are S.I. units (second, meters, Newtons, ...)
Angles are in degrees.

endheader
time	glut_med1_r	glut_med2_r	glut_med3_r	glut_min1_r	glut_min2_r	glut_min3_r	semimem_r	semiten_r	bifemlh_r	bifemsh_r	sar_r	add_long_r	add_brev_r	add_mag1_r	add_mag2_r	add_mag3_r	tfl_r	pect_r	grac_r	glut_max1_r	glut_max2_r	glut_max3_r	iliacus_r	psoas_r	quad_fem_r	gem_r	peri_r	rect_fem_r	vas_med_r	vas_int_r	vas_lat_r	med_gas_r	lat_gas_r	soleus_r	tib_post_r	flex_dig_r	flex_hal_r	tib_ant_r	per_brev_r	per_long_r	per_tert_r	ext_dig_r	ext_hal_r	glut_med1_l	glut_med2_l	glut_med3_l	glut_min1_l	glut_min2_l	glut_min3_l	semimem_l	semiten_l	bifemlh_l	bifemsh_l	sar_l	add_long_l	add_brev_l	add_mag1_l	add_mag2_l	add_mag3_l	tfl_l	pect_l	grac_l	glut_max1_l	glut_max2_l	glut_max3_l	iliacus_l	psoas_l	quad_fem_l	gem_l	peri_l	rect_fem_l	vas_med_l	vas_int_l	vas_lat_l	med_gas_l	lat_gas_l	soleus_l	tib_post_l	flex_dig_l	flex_hal_l	tib_ant_l	per_brev_l	per_long_l	per_tert_l	ext_dig_l	ext_hal_l	ercspn_r	ercspn_l	intobl_r	intobl_l	extobl_r	extobl_l	femur_lat_meniscii_r.femur_lat_r.force.X	femur_lat_meniscii_r.femur_lat_r.force.Y	femur_lat_meniscii_r.femur_lat_r.force.Z	femur_lat_meniscii_r.femur_lat_r.torque.X	femur_lat_meniscii_r.femur_lat_r.torque.Y	femur_lat_meniscii_r.femur_lat_r.torque.Z	femur_lat_meniscii_r.meniscus_lat_r.force.X	femur_lat_meniscii_r.meniscus_lat_r.force.Y	femur_lat_meniscii_r.meniscus_lat_r.force.Z	femur_lat_meniscii_r.meniscus_lat_r.torque.X	femur_lat_meniscii_r.meniscus_lat_r.torque.Y	femur_lat_meniscii_r.meniscus_lat_r.torque.Z	femur_med_meniscii_r.femur_med_r.force.X	femur_med_meniscii_r.femur_med_r.force.Y	femur_med_meniscii_r.femur_med_r.force.Z	femur_med_meniscii_r.femur_med_r.torque.X	femur_med_meniscii_r.femur_med_r.torque.Y	femur_med_meniscii_r.femur_med_r.torque.Z	femur_med_meniscii_r.meniscus_med_r.force.X	femur_med_meniscii_r.meniscus_med_r.force.Y	femur_med_meniscii_r.meniscus_med_r.force.Z	femur_med_meniscii_r.meniscus_med_r.torque.X	femur_med_meniscii_r.meniscus_med_r.torque.Y	femur_med_meniscii_r.meniscus_med_r.torque.Z	femur_med_tibia_r.tibia_upper_r.force.X	femur_med_tibia_r.tibia_upper_r.force.Y	femur_med_tibia_r.tibia_upper_r.force.Z	femur_med_tibia_r.tibia_upper_r.torque.X	femur_med_tibia_r.tibia_upper_r.torque.Y	femur_med_tibia_r.tibia_upper_r.torque.Z	femur_med_tibia_r.femur_med_r.force.X	femur_med_tibia_r.femur_med_r.force.Y	femur_med_tibia_r.femur_med_r.force.Z	femur_med_tibia_r.femur_med_r.torque.X	femur_med_tibia_r.femur_med_r.torque.Y	femur_med_tibia_r.femur_med_r.torque.Z	femur_lat_tibia_r.tibia_upper_r.force.X	femur_lat_tibia_r.tibia_upper_r.force.Y	femur_lat_tibia_r.tibia_upper_r.force.Z	femur_lat_tibia_r.tibia_upper_r.torque.X	femur_lat_tibia_r.tibia_upper_r.torque.Y	femur_lat_tibia_r.tibia_upper_r.torque.Z	femur_lat_tibia_r.femur_lat_r.force.X	femur_lat_tibia_r.femur_lat_r.force.Y	femur_lat_tibia_r.femur_lat_r.force.Z	femur_lat_tibia_r.femur_lat_r.torque.X	femur_lat_tibia_r.femur_lat_r.torque.Y	femur_lat_tibia_r.femur_lat_r.torque.Z	aACL_R	pACL_R	aPCL_R	pPCL_R	aMCL_R	mMCL_R	pMCL_R	aLCL_R	mLCL_R	pLCL_R	aPCL_L	pPCL_L	aMCL_L	aLCL_L
      0.16291251	     11.50997833	      8.40374163	      9.03938015	      3.87902282	      4.50709757	      4.88367600	      0.00000000	    166.14234656	    138.72991342	    295.91670801	    130.49473862	      8.36452256	      6.02018239	      2.80715878	      3.66502374	      6.18101341	      5.01110160	      3.27436702	     99.99013013	      5.42632433	      8.25495329	      6.20414083	     27.65425548	     18.65131646	      5.33484196	      3.67365891	      6.25865031	     52.55380222	     31.18625309	     33.33280884	     45.02385254	      0.00000000	      0.00000000	      0.00000000	      0.00000000	      0.00000000	      0.00000000	     33.73249164	      2.42132349	      2.94775164	     23.52851096	     41.26947078	     10.58148237	     11.50997833	      8.40374163	      9.03938015	      3.87902282	      4.50709757	      4.88367600	      0.00000000	      6.23028651	     12.29762614	     10.61839716	      2.21321185	      8.36452256	      6.02018239	      2.80715878	      3.66502374	      6.18101341	      5.45377531	      3.27436702	      2.28500916	      5.42632433	      8.25495329	      6.20414083	     27.65425548	     18.65131646	      5.33484196	      3.67365891	      6.25865031	     17.14324393	      0.00000000	      0.00000000	      0.00000000	     21.20760506	     10.02543919	     51.10534140	     51.14211170	      5.48525217	      4.90797017	     13.33390155	      7.13585307	     18.28516174	      2.88369142	      8.90249759	      2.79574374	     36.51257990	     36.51257990	     13.57400395	     13.57400395	     30.92864540	     30.92864540	    101.10712838	    187.77218708	     21.97974805	    -13.39032301	      2.45252927	     39.49818618	   -101.10712838	   -187.77218708	    -21.97974805	      5.18791914	     -3.04975770	      3.33507953	     24.09223068	     23.03530463	     12.74451187	     -4.61397332	     -0.55155824	      9.67343716	    -24.09223068	    -23.03530463	    -12.74451187	     -0.27096695	      0.25713951	      0.09320861	   -736.34368826	   -695.29473170	    219.01341318	    -16.08669093	     16.64415298	     -1.22428319	    736.34368826	    695.29473170	   -219.01341318	    101.67303722	    -13.31257417	    299.55028128	      0.00000000	      0.00000000	      0.00000000	      0.00000000	      0.00000000	      0.00000000	      0.00000000	      0.00000000	      0.00000000	      0.00000000	      0.00000000	      0.00000000	     -2.78712803	      0.00000000	    561.58140720	    367.10878249	      0.00000000	      0.00000000	      0.00000000	      0.00000000	      0.00000000	      0.00000000	      0.00000000	      0.00000000	      0.00000001	      0.00000000
      0.16342619	     11.48489679	      8.38524086	      9.01924252	      3.87083212	      4.49813345	      4.87223097	      0.00000000	    166.24956141	    138.83003368	    296.06100591	    130.49993549	      8.34589693	      6.00758873	      3.06117295	      3.65680975	      6.16613077	      4.99481314	      3.26740364	     99.98716322	      5.41432978	      8.23666552	      6.19018454	     27.62015070	     18.61242113	      5.32333248	      3.66803251	      6.25350104	     52.97528253	     31.16397043	     33.31662886	     45.00289251	      0.00000000	      0.00000000	      0.00000000	      0.00000000	      0.00000000	      0.00000000	     33.81656927	      2.40043321	      2.94428110	     48.61274741	     41.60281457	     10.65870556	     11.48489679	      8.38524086	      9.01924252	      3.87083212	      4.49813345	      4.87223097	      0.00000000	      6.21570782	     12.26966079	     10.59546226	      2.20856037	      8.34589693	      6.00758873	      3.06117295	      3.65680975	      6.16613077	      5.44460838	      3.26740364	      2.28012249	      5.41432978	      8.23666552	      6.19018454	     27.62015070	     18.61242113	      5.32333248	      3.66803251	      6.25350104	     17.10031302	      0.00000000	      0.00000000	      0.00000000	     21.19609361	     10.01816459	     51.00411729	     51.08788899	      5.47390417	      4.89776682	     13.30247176	      7.11803022	     18.25205005	      2.87770000	      8.87871151	      2.78854558	     36.43530946	     36.43530946	     13.54297752	     13.54297752	     30.90050742	     30.90050742	    101.72676987	    188.48670839	     22.58811086	    -13.66548472	      2.46912400	     39.72661481	   -101.72676987	   -188.48670839	    -22.58811086	      5.22887307	     -3.08245465	      3.38606211	     24.48383700	     22.98043309	     12.49693878	     -4.51444191	     -0.55882113	      9.82649973	    -24.48383700	    -22.98043309	    -12.49693878	     -0.27580100	      0.26746785	      0.09424593	   -742.31313446	   -693.06951600	    221.14964745	    -16.06499238	     16.80550960	     -1.24051169	    742.31313446	    693.06951600	   -221.14964745	    102.49383487	    -13.42330990	    301.94804280	      0.00000000	      0.00000000	      0.00000000	      0.00000000	      0.00000000	      0.00000000	      0.00000000	      0.00000000	      0.00000000	      0.00000000	      0.00000000	      0.00000000	     -2.73593324	      0.00000000	    566.82631957	    369.48691168	      0.00000000	      0.00000000	      0.00000000	      0.00000000	      0.00000000	      0.00000000	      0.00000000	      0.00000000	      0.00000001	      0.00000000
      0.16375981	     11.46865654	      8.37329323	      9.00623802	      3.86554234	      4.49234448	      4.86483922	      0.00000000	    166.30949837	    138.90111071	    296.15189428	    130.49555373	      8.33386886	      5.99945528	      3.19696743	      3.65150524	      6.15651957	      4.98386470	      3.26290656	     99.97810135	      5.40658402	      8.22485579	      6.18117202	     27.59812801	     18.58730530	      5.31589959	      3.66439952	      6.25009692	     53.25426630	     31.16301641	     33.31152190	     44.99111113	      0.00000000	      0.00000000	      0.00000000	      0.00000000	      0.00000000	      0.00000000	     33.87067031	      2.38696367	      2.94198332	     49.09815428	     41.83920902	     10.71562586	     11.46865654	      8.37329323	      9.00623802	      3.86554234	      4.49234448	      4.86483922	      0.00000000	      6.20629330	     12.25155589	     10.58065085	      2.20555629	      8.33386886	      5.99945528	      3.19696743	      3.65150524	      6.15651957	      5.43868784	      3.26290656	      2.27696661	      5.40658402	      8.22485579	      6.18117202	     27.59812801	     18.58730530	      5.31589959	      3.66439952	      6.25009692	     17.07257933	      0.00000000	      0.00000000	      0.00000000	     21.18843832	     10.01336153	     50.93839899	     51.05281681	      5.46649357	      4.89108228	     13.28214790	      7.10650882	     18.23060900	      2.87383112	      8.86351532	      2.78396507	     36.38540631	     36.38540631	     13.52294148	     13.52294148	     30.88233809	     30.88233809	    102.18194125	    189.04887652	     22.86185790	    -13.79338572	      2.47984481	     39.89591118	   -102.18194125	   -189.04887652	    -22.86185790	      5.25163941	     -3.10130735	      3.42073525	     24.24461635	     22.57170152	     12.29723033	     -4.44428864	     -0.55082659	      9.72698557	    -24.24461635	    -22.57170152	    -12.29723033	     -0.26997092	      0.26302784	      0.09567520	   -746.14431385	   -691.87846209	    220.90693959	    -16.00954655	     16.86450749	     -1.24300800	    746.14431385	    691.87846209	   -220.90693959	    102.35677836	    -13.48255571	    303.48519082	      0.00000000	      0.00000000	      0.00000000	      0.00000000	      0.00000000	      0.00000000	      0.00000000	      0.00000000	      0.00000000	      0.00000000	      0.00000000	      0.00000000	     -2.71117348	      0.00000000	    570.21461775	    371.04739173	      0.00000000	      0.00000000	      0.00000000	      0.00000000	      0.00000000	      0.00000000	      0.00000000	      0.00000000	      0.00000001	      0.00000000
      0.16409344	     11.45245636	      8.36139907	      8.99329186	      3.86027601	      4.48658138	      4.85748005	      0.00000000	    166.36153353	    138.97616999	    296.24011790	    130.48557914	      8.32189476	      5.99135778	      3.31427258	      3.64622448	      6.14695130	      4.97260999	      3.25842947	     99.96366744	      5.39887311	      8.21309915	      6.17220008	     27.57620531	     18.56230375	      5.30849983	      3.66078318	      6.24664646	     53.53426958	     31.15304107	     33.30337997	     44.97864099	      0.00000000	      0.00000000	      0.00000000	      0.00000000	      0.00000000	      0.00000000	     33.92417758	      2.37382449	      2.93987464	     47.56437682	     42.05754623	     10.76676199	     11.45245636	      8.36139907	      8.99329186	      3.86027601	      4.48658138	      4.85748005	      0.00000000	      6.19692112	     12.23349720	     10.56590549	      2.20256552	      8.32189476	      5.99135778	      3.31427258	      3.64622448	      6.14695130	      5.43279332	      3.25842947	      2.27382476	      5.39887311	      8.21309915	      6.17220008	     27.57620531	     18.56230375	      5.30849983	      3.66078318	      6.24664646	     17.04496256	      0.00000000	      0.00000000	      0.00000000	     21.18064356	     10.00849750	     50.87270425	     51.01785851	      5.45905042	      4.88435141	     13.26189442	      7.09503003	     18.20921908	      2.86997979	      8.84851660	      2.77945842	     36.33572442	     36.33572442	     13.50299551	     13.50299551	     30.86425158	     30.86425158	    102.56779384	    189.61194110	     22.99114237	    -13.86519355	      2.48815804	     40.03638089	   -102.56779384	   -189.61194110	    -22.99114237	      5.27409445	     -3.11473423	      3.45760444	     24.51928050	     22.48495339	     12.10441496	     -4.36866199	     -0.55623452	      9.83504157	    -24.51928050	    -22.48495339	    -12.10441496	     -0.27177217	      0.27109496	      0.09451362	   -749.64451568	   -690.06177826	    221.90362761	    -15.98369691	     16.95381245	     -1.25500151	    749.64451568	    690.06177826	   -221.90362761	    102.72708878	    -13.54637660	    304.89153936	      0.00000000	      0.00000000	      0.00000000	      0.00000000	      0.00000000	      0.00000000	      0.00000000	      0.00000000	      0.00000000	      0.00000000	      0.00000000	      0.00000000	     -2.69601948	      0.00000000	    573.56622475	    372.56575406	      0.00000000	      0.00000000	      0.00000000	      0.00000000	      0.00000000	      0.00000000	      0.00000000	      0.00000000	      0.00000001	      0.00000000
